<svg width="59" height="33" viewBox="0 0 59 33" fill="none" xmlns="http://www.w3.org/2000/svg">
<path d="M6.36523 24.0098L2.37109 13.4727L0.59375 13.2383V9H10.3691V13.2383L9.29492 13.4727L10.9844 19.0293L12.6738 13.4727L11.5996 13.2383V9H21.082V13.2383L20.0078 13.4727L21.6973 19.0293L23.3867 13.4727L22.3125 13.2383V9H29.793V13.2383L28.0254 13.4727L24.0312 24.0098H17.0781L15.1934 18.2676L13.3184 24.0098H6.36523ZM33.3672 24V20.1035L34.5391 19.8789V13.8828C34.2201 13.8828 33.8978 13.9349 33.5723 14.0391C33.2533 14.1432 32.9863 14.2962 32.7715 14.498C32.5566 14.6999 32.4492 14.9505 32.4492 15.25H30.8184V10.25H44.1387V15.25H42.5078C42.5078 14.9505 42.3971 14.6999 42.1758 14.498C41.9609 14.2962 41.694 14.1432 41.375 14.0391C41.056 13.9349 40.737 13.8828 40.418 13.8828V19.8789L41.5898 20.1035V24H33.3672ZM51.6191 24.1758C50.4082 24.1758 49.2884 24.0977 48.2598 23.9414C47.2376 23.7786 46.3001 23.4759 45.4473 23.0332V19.1758H48.3867C48.6602 19.5534 48.9954 19.8757 49.3926 20.1426C49.7962 20.4095 50.2812 20.543 50.8477 20.543C51.3034 20.543 51.6257 20.4225 51.8145 20.1816C52.0033 19.9342 52.0977 19.5729 52.0977 19.0977C51.2188 19.0195 50.3724 18.8828 49.5586 18.6875C48.7513 18.4922 48.0286 18.2057 47.3906 17.8281C46.7526 17.444 46.248 16.9362 45.877 16.3047C45.5059 15.6667 45.3203 14.8691 45.3203 13.9121C45.3203 12.6296 45.6035 11.6204 46.1699 10.8848C46.7428 10.1491 47.5273 9.625 48.5234 9.3125C49.526 9 50.6686 8.84375 51.9512 8.84375C53.2207 8.84375 54.3438 8.94141 55.3203 9.13672C56.2969 9.33203 57.1986 9.62174 58.0254 10.0059V13.8145H55.0859C54.8255 13.4434 54.5033 13.1243 54.1191 12.8574C53.735 12.584 53.2695 12.4473 52.7227 12.4473C52.2669 12.4473 51.9382 12.5872 51.7363 12.8672C51.5345 13.1406 51.4336 13.5182 51.4336 14C52.4297 14.0326 53.3477 14.1367 54.1875 14.3125C55.0339 14.4883 55.7663 14.7747 56.3848 15.1719C57.0098 15.5625 57.4915 16.0931 57.8301 16.7637C58.1751 17.4277 58.3477 18.2708 58.3477 19.293C58.3477 20.224 58.1751 21.0052 57.8301 21.6367C57.485 22.2617 57.0065 22.7598 56.3945 23.1309C55.7826 23.502 55.0697 23.7689 54.2559 23.9316C53.4421 24.0944 52.5632 24.1758 51.6191 24.1758Z" fill="white"/>
<line y1="26.5" x2="30" y2="26.5" stroke="white"/>
<line x1="45" y1="26.5" x2="59" y2="26.5" stroke="white"/>
</svg>
